---
title: 施孝荣.1982-侠客（2007滚石复刻版）【新格】【WAV+CUE】
date: 2023-08-13 07:39:25
categories: WAV车载音乐、镜像
tags: 华语中文
---
# 施孝荣.1982-侠客（2007滚石复刻版）【新格】【WAV+CUE】

REM GENRE POP
REM DATE 1982
PERFORMER "施孝荣"
TITLE "侠客 [台湾复刻版]"
FILE "施孝荣.-.[侠客](1982)[WAV].wav" WAVE
TRACK 01 AUDIO
TITLE "侠客"
PERFORMER "施孝荣"
INDEX 01 00:00:00
TRACK 02 AUDIO
TITLE "摇橹的人"
PERFORMER "施孝荣"
INDEX 00 03:52:45
INDEX 01 03:55:42
TRACK 03 AUDIO
TITLE "不要再对我说"
PERFORMER "施孝荣"
INDEX 00 06:48:35
INDEX 01 06:51:70
TRACK 04 AUDIO
TITLE "除非"
PERFORMER "施孝荣"
INDEX 00 09:49:42
INDEX 01 09:52:15
TRACK 05 AUDIO
TITLE "无限的爱"
PERFORMER "施孝荣"
INDEX 00 12:44:70
INDEX 01 12:48:25
TRACK 06 AUDIO
TITLE "起跑线"
PERFORMER "施孝荣"
INDEX 00 15:52:72
INDEX 01 15:54:67
TRACK 07 AUDIO
TITLE "草原儿女"
PERFORMER "施孝荣"
INDEX 00 18:26:20
INDEX 01 18:29:70
TRACK 08 AUDIO
TITLE "纪念"
PERFORMER "施孝荣"
INDEX 00 22:49:37
INDEX 01 22:52:20
TRACK 09 AUDIO
TITLE "切莫登楼"
PERFORMER "施孝荣"
INDEX 00 26:19:12
INDEX 01 26:22:27
TRACK 10 AUDIO
TITLE "秋暮"
PERFORMER "施孝荣"
INDEX 00 30:23:12
INDEX 01 30:26:00
TRACK 11 AUDIO
TITLE "无言的路"
PERFORMER "施孝荣"
INDEX 00 33:59:00
INDEX 01 34:01:47
施孝荣.1982 - 侠客（2007滚石复刻版）【新格】【WAV+CUE】.rar: https://url27.ctfile.com/f/9388027-905140584-5167e9?p=559675
(访问密码: 559675)
施孝荣.-.[重逢].专辑.(ape).zip: https://url27.ctfile.com/f/9388027-452661441-c89a40?p=559675
(访问密码: 559675)
施孝荣.1981 - 施孝荣专辑（2006滚石复刻版）【新格】【WAV+CUE】.rar: https://url27.ctfile.com/f/9388027-572177474-360d21?p=559675
(访问密码: 559675)
施孝荣.1988 - 来去之间【上扬】【WAV+CUE】.rar: https://url27.ctfile.com/f/9388027-905140683-e73001?p=559675
(访问密码: 559675)
施孝荣.1988 - 现在的我·矛盾的爱【上扬】【WAV+CUE】.rar: https://url27.ctfile.com/f/9388027-905140593-dd9191?p=559675
(访问密码: 559675)
原文：[链接](https://blog.sina.com.cn/s/blog_1647c7e760103132p.html)